<?xml version="1.0" encoding="utf-8"?>
<!-- Generator: Adobe Illustrator 14.0.0, SVG Export Plug-In . SVG Version: 6.00 Build 43363)  -->
<!DOCTYPE svg PUBLIC "-//W3C//DTD SVG 1.1//EN" "http://www.w3.org/Graphics/SVG/1.1/DTD/svg11.dtd">
<svg version="1.1" id="Calque_1" xmlns="http://www.w3.org/2000/svg" xmlns:xlink="http://www.w3.org/1999/xlink" x="0px" y="0px"
	 width="283.464px" height="299.221px" viewBox="0 0 283.464 299.221" enable-background="new 0 0 283.464 299.221"
	 xml:space="preserve">
<g>
	<defs>
		<rect id="SVGID_1_" width="283.464" height="299.221"/>
	</defs>
	<clipPath id="SVGID_2_">
		<use xlink:href="#SVGID_1_"  overflow="visible"/>
	</clipPath>
	<path clip-path="url(#SVGID_2_)" fill="#006AB3" d="M238.211,211.921c-12.392,20.896-27.242,36.773-40.622,48.244L35.531,92.686
		l52.29-37.968c0.107,0.168,0.004,0.068,0.404,0.467l149.892,156.706L238.211,211.921"/>
	<path clip-path="url(#SVGID_2_)" fill="#FFED00" d="M60.597,179.881l-32.146-33.593V47.565h40.429
		c7.123,0,13.672,2.444,18.351,7.129c4.199,4.526,7.817,8.875,7.525,18.053c-0.479,13.971-11.607,24.228-25.772,25.585
		c0.404-1.263,0.586-2.625,0.586-3.994c0-7.122-5.748-12.883-12.827-12.883c-7.101,0-12.863,5.761-12.863,12.883
		c0,2.642,0.88,5.86,2.979,8.401l150.729,157.422c-19.924,17.176-36.526,24.623-36.526,24.623L60.597,179.881"/>
	<path clip-path="url(#SVGID_2_)" fill="#E2001A" d="M238.211,211.921l-92.188-96.583l-0.084-0.499V25.399h118.636v95.69
		C262.835,158.397,252.172,188.379,238.211,211.921"/>
	<path clip-path="url(#SVGID_2_)" fill="none" stroke="#000000" stroke-width="0.367" d="M60.597,179.881L161.06,284.784
		c0,0,98.057-44.089,103.515-163.694v-95.69H145.939v89.439L88.402,55.185c-4.675-4.979-12.195-7.619-19.522-7.619H28.451v98.723
		L60.597,179.881z"/>
	<path clip-path="url(#SVGID_2_)" d="M16.536,135.354c0-14.17-0.226-17.082-5.419-17.777l-2.141-0.296
		c-1.154-0.774-1.154-5.081,0.209-5.266c9.499-0.774,18.307-1.363,30.298-1.363c9.275,0,18.531,1.255,26.342,4.972
		c14.777,7.031,22.888,24.703,22.888,43.364c0,20.022-7.229,36.224-20.219,44.726c-7.649,5.079-16.927,7.029-28.568,7.029
		c-5.316,0-10.967-0.882-15.022-0.882c-5.43,0-11.184,0.11-17.639,0.403c-0.912-0.882-0.912-4.413,0-5.188l3.507-0.775
		c5.093-1.004,5.764-2.246,5.764-16.015V135.354 M32.699,182.807c0,8.208,0.223,13.581,2.264,16.709
		c2.012,3.021,5.305,4.386,9.376,4.386c19.559,0,26.203-23.046,26.203-43.443c0-26.868-10.738-42.881-31.181-42.881
		c-3.049,0-5.197,0.695-5.865,1.951c-0.682,1.175-0.797,4.01-0.797,8.687V182.807z"/>
	<path clip-path="url(#SVGID_2_)" fill="none" stroke="#FFFFFF" stroke-width="0.405" d="M16.536,135.354
		c0-14.17-0.226-17.082-5.419-17.777l-2.141-0.296c-1.154-0.774-1.154-5.081,0.209-5.266c9.499-0.774,18.307-1.363,30.298-1.363
		c9.275,0,18.531,1.255,26.342,4.972c14.777,7.031,22.888,24.703,22.888,43.364c0,20.022-7.229,36.224-20.219,44.726
		c-7.649,5.079-16.927,7.029-28.568,7.029c-5.316,0-10.967-0.882-15.022-0.882c-5.43,0-11.184,0.11-17.639,0.403
		c-0.912-0.882-0.912-4.413,0-5.188l3.507-0.775c5.093-1.004,5.764-2.246,5.764-16.015V135.354z M32.699,182.807
		c0,8.208,0.223,13.581,2.264,16.709c2.012,3.021,5.305,4.386,9.376,4.386c19.559,0,26.203-23.046,26.203-43.443
		c0-26.868-10.738-42.881-31.181-42.881c-3.049,0-5.197,0.695-5.865,1.951c-0.682,1.175-0.797,4.01-0.797,8.687V182.807z"/>
	<path clip-path="url(#SVGID_2_)" d="M113.122,192.484c0,10.455,0.481,11.817,4.196,12.298l2.147,0.295
		c0.884,0.883,0.884,4.306-0.1,5.188c-3.995-0.293-8.393-0.403-13.572-0.403c-5.08,0-9.858,0.11-13.572,0.403
		c-0.985-0.882-0.985-4.305-0.101-5.188l2.148-0.295c3.715-0.48,4.197-1.843,4.197-12.298v-22.563c0-5.962,0-7.808-2.149-9.57
		l-1.567-1.363c-0.86-0.884-0.86-3.61,0-4.493c5.281-1.951,13.292-5.962,16.705-8.688c0.885,0,1.567,0.48,2.05,1.364
		c-0.282,4.49-0.383,11.039-0.383,17.779V192.484 M114.004,124.9c0,7.139-4.116,10.936-8.413,10.936
		c-4.979,0-7.91-4.492-7.91-10.641c0-6.552,3.916-10.934,8.413-10.934C110.874,114.262,114.004,118.94,114.004,124.9"/>
	<path clip-path="url(#SVGID_2_)" fill="none" stroke="#FFFFFF" stroke-width="0.405" d="M113.122,192.484
		c0,10.455,0.481,11.817,4.196,12.298l2.147,0.295c0.884,0.883,0.884,4.306-0.1,5.188c-3.995-0.293-8.393-0.403-13.572-0.403
		c-5.08,0-9.858,0.11-13.572,0.403c-0.985-0.882-0.985-4.305-0.101-5.188l2.148-0.295c3.715-0.48,4.197-1.843,4.197-12.298v-22.563
		c0-5.962,0-7.808-2.149-9.57l-1.567-1.363c-0.86-0.884-0.86-3.61,0-4.493c5.281-1.951,13.292-5.962,16.705-8.688
		c0.885,0,1.567,0.48,2.05,1.364c-0.282,4.49-0.383,11.039-0.383,17.779V192.484z M114.004,124.9c0,7.139-4.116,10.936-8.413,10.936
		c-4.979,0-7.91-4.492-7.91-10.641c0-6.552,3.916-10.934,8.413-10.934C110.874,114.262,114.004,118.94,114.004,124.9z"/>
	<path clip-path="url(#SVGID_2_)" d="M139.883,201.949c0,10.268-0.683,18.366-2.349,24.036
		c-3.031,10.638-8.111,17.668-22.669,24.112c-1.744-0.775-2.325-3.608-1.644-4.968c2.43-1.583,4.577-3.829,5.561-5.377
		c4.397-5.853,6.445-16.417,6.445-34.676v-35.155c0-5.962,0-7.808-2.148-9.57l-1.566-1.363c-0.783-0.884-0.783-3.61,0-4.493
		c5.28-1.951,13.19-5.962,16.704-8.688c0.883,0,1.566,0.48,2.048,1.364c-0.201,4.49-0.382,11.039-0.382,17.779V201.949
		 M140.847,124.9c0,7.139-4.195,10.936-8.492,10.936c-4.979,0-7.911-4.492-7.911-10.641c0-6.552,3.916-10.934,8.493-10.934
		C137.635,114.262,140.847,118.94,140.847,124.9"/>
	<path clip-path="url(#SVGID_2_)" fill="none" stroke="#FFFFFF" stroke-width="0.405" d="M139.883,201.949
		c0,10.268-0.683,18.366-2.349,24.036c-3.031,10.638-8.111,17.668-22.669,24.112c-1.744-0.775-2.325-3.608-1.644-4.968
		c2.43-1.583,4.577-3.829,5.561-5.377c4.397-5.853,6.445-16.417,6.445-34.676v-35.155c0-5.962,0-7.808-2.148-9.57l-1.566-1.363
		c-0.783-0.884-0.783-3.61,0-4.493c5.28-1.951,13.19-5.962,16.704-8.688c0.883,0,1.566,0.48,2.048,1.364
		c-0.201,4.49-0.382,11.039-0.382,17.779V201.949z M140.847,124.9c0,7.139-4.195,10.936-8.492,10.936
		c-4.979,0-7.911-4.492-7.911-10.641c0-6.552,3.916-10.934,8.493-10.934C137.635,114.262,140.847,118.94,140.847,124.9z"/>
	<path clip-path="url(#SVGID_2_)" d="M145.244,181.149c-0.101-21.387,12.608-33.203,25.979-33.203
		c13.371,0,25.296,10.746,25.296,31.84c0,21.869-12.105,32.135-25.978,32.135C157.07,211.921,145.344,201.763,145.244,181.149
		 M161.466,177.835c0,15.72,3.793,27.242,10.339,27.242c6.443,0,8.594-9.757,8.491-23.23c-0.177-14.465-3.312-27.056-9.756-27.056
		C165.562,154.791,161.466,161.527,161.466,177.835"/>
	<path clip-path="url(#SVGID_2_)" fill="none" stroke="#FFFFFF" stroke-width="0.405" d="M145.244,181.149
		c-0.101-21.387,12.608-33.203,25.979-33.203c13.371,0,25.296,10.746,25.296,31.84c0,21.869-12.105,32.135-25.978,32.135
		C157.07,211.921,145.344,201.763,145.244,181.149z M161.466,177.835c0,15.72,3.793,27.242,10.339,27.242
		c6.443,0,8.594-9.757,8.491-23.23c-0.177-14.465-3.312-27.056-9.756-27.056C165.562,154.791,161.466,161.527,161.466,177.835z"/>
	<path clip-path="url(#SVGID_2_)" d="M203.847,169.922c0-5.962,0-7.808-2.146-9.57l-1.567-1.363c-0.782-0.884-0.782-3.61,0-4.493
		c5.358-1.951,13.471-5.962,16.708-8.688c0.959,0,1.641,0.48,2.044,1.364c0,2.138-0.301,5.667-0.301,6.735
		c0,0.884,0.202,1.177,0.58,1.177c0.302,0,1.465-0.694,2.147-1.177c2.451-1.952,7.782-5.961,12.99-5.961
		c9.376,0,14.075,8.501,14.075,18.846v25.692c0,10.455,0.481,11.71,4.547,12.298l1.795,0.295c0.896,0.883,0.896,4.305-0.098,5.188
		c-3.514-0.293-8.242-0.403-13.674-0.403c-4.497,0-8.894,0.11-12.206,0.403c-0.984-0.883-0.984-4.305-0.101-5.188l2.047-0.48
		c2.552-0.589,3.032-1.657,3.032-9.866v-25.29c0-5.775-2.247-10.561-7.91-10.561c-3.188,0-5.46,1.871-6.344,3.529
		c-0.68,1.069-0.882,2.835-0.882,5.56v26.762c0,8.209,0.401,9.571,3.233,10.052l1.846,0.295c0.882,0.883,0.882,4.305-0.102,5.188
		c-3.514-0.293-7.128-0.403-12.587-0.403c-4.7,0-9.377,0.11-13.291,0.403c-1.063-0.883-1.063-4.305-0.103-5.188l1.77-0.295
		c4.094-0.588,4.496-1.843,4.496-12.298V169.922"/>
	<path clip-path="url(#SVGID_2_)" fill="none" stroke="#FFFFFF" stroke-width="0.405" d="M203.847,169.922
		c0-5.962,0-7.808-2.146-9.57l-1.567-1.363c-0.782-0.884-0.782-3.61,0-4.493c5.358-1.951,13.471-5.962,16.708-8.688
		c0.959,0,1.641,0.48,2.044,1.364c0,2.138-0.301,5.667-0.301,6.735c0,0.884,0.202,1.177,0.58,1.177c0.302,0,1.465-0.694,2.147-1.177
		c2.451-1.952,7.782-5.961,12.99-5.961c9.376,0,14.075,8.501,14.075,18.846v25.692c0,10.455,0.481,11.71,4.547,12.298l1.795,0.295
		c0.896,0.883,0.896,4.305-0.098,5.188c-3.514-0.293-8.242-0.403-13.674-0.403c-4.497,0-8.894,0.11-12.206,0.403
		c-0.984-0.883-0.984-4.305-0.101-5.188l2.047-0.48c2.552-0.589,3.032-1.657,3.032-9.866v-25.29c0-5.775-2.247-10.561-7.91-10.561
		c-3.188,0-5.46,1.871-6.344,3.529c-0.68,1.069-0.882,2.835-0.882,5.56v26.762c0,8.209,0.401,9.571,3.233,10.052l1.846,0.295
		c0.882,0.883,0.882,4.305-0.102,5.188c-3.514-0.293-7.128-0.403-12.587-0.403c-4.7,0-9.377,0.11-13.291,0.403
		c-1.063-0.883-1.063-4.305-0.103-5.188l1.77-0.295c4.094-0.588,4.496-1.843,4.496-12.298V169.922z"/>
</g>
</svg>
